<svg id="Компонент_9_2" data-name="Компонент 9 – 2" xmlns="http://www.w3.org/2000/svg" width="22" height="22.081" viewBox="0 0 22 22.081">
  <path id="Контур_19" data-name="Контур 19" d="M12.519,14.16A6.31,6.31,0,0,1,6.166,7.908a6.355,6.355,0,0,1,12.708,0A6.312,6.312,0,0,1,12.519,14.16Zm0-10.257a4.007,4.007,0,1,0,4.073,4.005A4.044,4.044,0,0,0,12.519,3.9Z" transform="translate(-1.906 -1.658)" fill="#fff"/>
  <path id="Контур_20" data-name="Контур 20" d="M24.176,22.844h-22V20.689a5.828,5.828,0,0,1,5.867-5.776H18.306a5.829,5.829,0,0,1,5.87,5.776ZM4.459,20.6H21.894a3.567,3.567,0,0,0-3.588-3.441H8.043A3.564,3.564,0,0,0,4.459,20.6Z" transform="translate(-2.176 -0.763)" fill="#fff"/>
</svg>
