<svg xmlns="http://www.w3.org/2000/svg" width="22.47" height="22.5" viewBox="0 0 22.47 22.5">
  <g id="call-2" transform="translate(-0.765 -0.75)">
    <path id="Vector" d="M21.985,18.33a2.54,2.54,0,0,1-.25,1.09,4.137,4.137,0,0,1-.68,1.02,4.506,4.506,0,0,1-1.64,1.18,5.033,5.033,0,0,1-1.95.38,8.333,8.333,0,0,1-3.26-.73,17.551,17.551,0,0,1-3.44-1.98,28.791,28.791,0,0,1-3.28-2.8A28.418,28.418,0,0,1,4.7,13.22a17.874,17.874,0,0,1-1.96-3.41,8.436,8.436,0,0,1-.72-3.27,5.181,5.181,0,0,1,.36-1.93,4.594,4.594,0,0,1,1.15-1.67A2.928,2.928,0,0,1,5.605,2a1.874,1.874,0,0,1,.81.18,1.628,1.628,0,0,1,.67.56L9.4,6.01a3.4,3.4,0,0,1,.4.7,1.567,1.567,0,0,1,.14.61,1.353,1.353,0,0,1-.21.71,3.4,3.4,0,0,1-.56.71l-.76.79a.535.535,0,0,0-.16.4.891.891,0,0,0,.03.23c.03.08.06.14.08.2a8.346,8.346,0,0,0,.93,1.28c.45.52.93,1.05,1.45,1.58.54.53,1.06,1.02,1.59,1.47a7.654,7.654,0,0,0,1.29.92c.05.02.11.05.18.08a.686.686,0,0,0,.25.04.55.55,0,0,0,.41-.17l.76-.75a3.058,3.058,0,0,1,.72-.56,1.324,1.324,0,0,1,.71-.21,1.6,1.6,0,0,1,.61.13,3.836,3.836,0,0,1,.7.39l3.31,2.35a1.518,1.518,0,0,1,.55.64A2.049,2.049,0,0,1,21.985,18.33Z" fill="none" stroke="#fff" stroke-width="2.5"/>
  </g>
</svg>
