<svg xmlns="http://www.w3.org/2000/svg" width="81" height="104" viewBox="0 0 81 104">
  <g id="Logo" transform="translate(-1169.935 -9.239)">
    <rect id="Прямоугольник_1" data-name="Прямоугольник 1" width="81" height="104" transform="translate(1169.935 9.239)" fill="#fff" opacity="0"/>
    <g id="Сгруппировать_5" data-name="Сгруппировать 5" transform="translate(1117.192 -317.366)">
      <path id="Контур_22" data-name="Контур 22" d="M101.531,409.113A31.18,31.18,0,0,0,88.656,348.1c-7.013,1.48-13.317,6.154-17.631,11.218-2.869.732-5.41,1.428-8.025,3.8a35.635,35.635,0,1,1,12.156,45.027q.563-.339,1.125-.71a28.687,28.687,0,0,0,2.774-2.087A31.071,31.071,0,0,0,101.531,409.113Z" transform="translate(-2.992)" fill="#fff"/>
      <path id="Контур_23" data-name="Контур 23" d="M58.763,392.081c1.4-4.165,3.038-4.539,5.211-5.945,6.05-3.931,21.324-3.968,26.444-2.787a25.814,25.814,0,0,1,11.866,6.569c7.761,7.134,13.126,3.348,17.532,11.651.456.851.606,1.12.606,1.12s-3.068-3.162-5.294-3.754c-6.877-1.85-7.018,2.843-17.089-3.643,2.8,3.956,5.757,5.3,10.436,5.37a10.41,10.41,0,0,1-1.12,5.084c-1.588,2.758-3.947,5.911-4.3,7.279-.38,1.373-.841,3.779-2.68,2.943s-1.456-1.539-3.048-1.319c-1.1.162-2.186.578-2.992.7a10.605,10.605,0,0,0-.907-4.957,4.351,4.351,0,0,0-2.693-2.479,7.962,7.962,0,0,0-4.15.137c-1.975.486-3.026-.007-4.971-.914-3.951-1.658-6.518-3.1-11.092,1.7,2.728-2.054,3.539-3.032,7.462-1.506,1.205.461,2.132.912,2.946,1.271,2.3,1.061,3.535,1.654,6.058,1.03a6.354,6.354,0,0,1,3.263-.181,2.878,2.878,0,0,1,1.709,1.647c1.086,2.195.936,9.359-.534,11.147-1.211,1.479-2.683,1.4-3.818,2.145-1.118.72-1.8,3.266-3.356,4.333a13.814,13.814,0,0,1-2.731,1.5s-2.145-4.613-1.886-6.123c.281-1.513,4.04-2.158,4.955-2.743.92-.563,2.1-3.743,2.061-4.891a7.53,7.53,0,0,0-.439-2.192c-5.359,6.879-9.05,6.014-17.259,3.43,2.476,2.547,6.858,3.727,11.061,3.3-.658.6-1.326,1.156-1.98,1.665-3.915,3-3.818,3.506-7.807,5.386-5.943-4.862-10.375-13.572-12.1-21.727C57.276,400.134,57.994,396.421,58.763,392.081Zm44.7,11.737a1.389,1.389,0,0,0-1.076.807,4.307,4.307,0,0,0,.087,1.943,5.4,5.4,0,0,0,1.265-1.444A1.276,1.276,0,0,0,103.463,403.818Z" transform="translate(0 -22.602)" fill="#de1300"/>
    </g>
  </g>
</svg>
