<svg xmlns="http://www.w3.org/2000/svg" width="22" height="20.012" viewBox="0 0 22 20.012">
  <g id="IconBasker" transform="translate(0 -9.961)">
    <path id="Контур_15" data-name="Контур 15" d="M23.467,6.9a1.994,1.994,0,0,0-1.616-.812H9.318l0-.013L6.153,2.92H2.82a.96.96,0,0,0,0,1.92H5.359L7.381,6.862v5.979a2.574,2.574,0,0,0,2.572,2.571h10.3a2,2,0,0,0,1.923-1.427l1.6-5.3A1.994,1.994,0,0,0,23.467,6.9Zm-3.133,6.527a.086.086,0,0,1-.083.062H9.953a.653.653,0,0,1-.652-.652V8.02l12.633.1Z" transform="translate(-1.86 7.041)" fill="#fff"/>
    <path id="Контур_16" data-name="Контур 16" d="M9.977,15.926a2.84,2.84,0,1,0,2.84,2.84A2.843,2.843,0,0,0,9.977,15.926Zm0,3.76a.92.92,0,1,1,.92-.92A.92.92,0,0,1,9.977,19.686Z" transform="translate(-1.322 8.367)" fill="#fff"/>
    <path id="Контур_17" data-name="Контур 17" d="M17.9,15.926a2.84,2.84,0,1,0,2.84,2.84A2.844,2.844,0,0,0,17.9,15.926Zm0,3.76a.92.92,0,1,1,.92-.92A.921.921,0,0,1,17.9,19.686Z" transform="translate(-0.513 8.367)" fill="#fff"/>
  </g>
</svg>
